<?xml version="1.0" encoding="utf-8"?>
<!-- Svg Vector Icons : http://www.onlinewebfonts.com/icon -->
<!DOCTYPE svg PUBLIC "-//W3C//DTD SVG 1.1//EN" "http://www.w3.org/Graphics/SVG/1.1/DTD/svg11.dtd">
<svg version="1.1" xmlns="http://www.w3.org/2000/svg" xmlns:xlink="http://www.w3.org/1999/xlink" x="0px" y="0px" viewBox="0 0 256 256" enable-background="new 0 0 256 256" xml:space="preserve">
<metadata> Svg Vector Icons : http://www.onlinewebfonts.com/icon </metadata>
<g><g><path fill="#000000" d="M173.1,14.2h2.2c12.5,0.4,24.8,3.8,35.4,10.3c16.4,9.7,28.6,26.3,33,44.9c1.4,5.3,1.9,10.7,2.2,16.2v3.1c-0.3,8.3-1.8,16.6-4.8,24.3c-6.3,16.8-19.2,31.1-35.2,39.1c-17.6,9-38.8,10.2-57.2,3.1c-6.1,6.1-12.1,12.2-18.1,18.3c-2.2,0-4.3,0-6.4,0c0,2.2,0,4.3,0,6.4c-3.8,3.9-7.8,7.9-11.6,11.8c-2.2,0-4.3,0-6.5,0.1c0,2.1,0,4.2,0,6.3c-5.3,5.5-10.8,11-16.2,16.4c-3.7-0.1-7.2,0-10.8,0c0,3.7-0.1,7.2,0,10.9c-5.4,5.5-10.8,10.9-16.2,16.4H32.4c-4-3.9-7.9-7.9-11.7-11.8v-30.9c28.5-29,57.2-57.8,85.7-86.6c-4.5-11.9-5.6-25.2-3.5-37.8c3.8-22.8,19-43.2,39.6-53.1C152,16.8,162.6,14.4,173.1,14.2z M166.1,23.8c-2.7,0.4-5.5,0.8-8,1.6c-19.4,4.9-35.9,19.9-43,38.7c-4.1,10.7-5.2,22.7-3.2,34.1c3,17.8,14,34,29.4,43.2c12.1,7.6,26.9,10.7,41,8.7c8.3-1.2,16.3-4,23.5-8.2c13.9-8.2,24.5-21.9,28.8-37.6c3-10.7,3.1-22.1,0.4-32.9C230.8,53.6,218.3,38,201.8,30C190.9,24.4,178.3,22.3,166.1,23.8z M31.6,200.9c-0.6,0.7-1.4,1.3-1.9,2.1c-0.1,4.8,0,9.6,0,14.4c23.1-23.5,46.4-46.9,69.5-70.4c1-1,2.6-2,4.2-1.7c2.3,0,4.2,2.3,4,4.6c-0.1,2-1.6,3.4-2.9,4.8c-18.1,18.2-36.1,36.4-54.2,54.7c-6.2,6.4-12.5,12.6-18.7,19.1c1.5,1.3,2.7,2.8,4.2,4.2c0.3,0.5,1,0.2,1.6,0.3c7.2-0.1,14.4,0,21.6-0.1c0.5,0.1,0.9-0.5,1.2-0.8c3.3-3.4,6.7-6.8,10.1-10.2c0-5.5,0-10.9,0-16.3c5.3,0,10.6,0.1,16,0c3.4-3,6.4-6.5,9.8-9.7c0.5-0.5,1.3-1,1.2-1.9c0-3.7,0-7.5,0-11.2c3.9,0,7.8,0,11.7,0c2-2.2,4.4-4.2,6.3-6.5c0.1-3.9,0-7.8,0-11.6c3.9-0.1,7.9,0,11.7-0.1c4.3-4.4,8.6-8.7,12.9-13.1c-3-1.8-6.1-3.6-8.9-5.8c-8.6-6.3-15.6-14.7-20.7-24.1C84.1,147.8,57.9,174.4,31.6,200.9z M147.9,44.4c7.2-4.6,15.7-7.1,24.2-7.4c9.8-0.4,19.7,2.3,28,7.6c7.8,4.9,14.1,12,18.2,20.3c3.5,7.3,5.3,15.5,5.1,23.7c-0.3,9.8-3.4,19.6-9.1,27.5c-2.4,3.6-5.6,6.6-8.4,9.8c-23.5-23.6-47-47.4-70.4-71.1C139.5,51.1,143.3,47.2,147.9,44.4z M148.7,55c18.9,19.2,37.9,38.4,56.9,57.6c7.1-8.8,10.1-20.5,8.5-31.6c-1.4-9.5-6.2-18.4-13.2-24.6c-7-6.3-16.3-10-25.6-10.2C165.6,45.8,156,49,148.7,55z"/><path fill="#000000" d="M52.3,14.2C29,14.2,10,33.1,10,56.4c0,23.3,19,42.3,42.3,42.3c23.3,0,42.3-19,42.3-42.3C94.5,33.1,75.6,14.2,52.3,14.2z M52.3,93.7C31.7,93.7,15,77,15,56.4c0-20.6,16.7-37.3,37.3-37.3c20.6,0,37.3,16.7,37.3,37.3C89.5,77,72.8,93.7,52.3,93.7z M41.6,33.5l-2.5,0.1c0,0,0.3,5.4-3,8.6c-1.9,1.9-4.7,2.7-8.4,2.4l-0.2,2.5c0.6,0,1.1,0.1,1.6,0.1c3.6,0,6.6-1.1,8.7-3.2C41.9,40,41.6,33.7,41.6,33.5z M68.4,42.2c-3.3-3.2-3-8.5-3-8.6l-2.5-0.1c0,0.3-0.3,6.5,3.7,10.5c2.1,2.1,5.1,3.2,8.7,3.2c0.5,0,1.1,0,1.6-0.1l-0.2-2.5C73.2,44.9,70.3,44.1,68.4,42.2z M64.1,74.4c-2.4,0-4.4-1.3-4.6-2.9l-1.3,0.2l-1.3-0.2c-0.2,1.6-2.2,2.9-4.6,2.9c-2.4,0-4.4-1.3-4.6-2.9l-1.3,0.2l-1.3-0.2c-0.2,1.6-2.2,2.9-4.6,2.9c-2.4,0-4.4-1.3-4.6-2.9l-2.5,0.3c0.4,2.9,3.4,5.1,7.1,5.1c2.5,0,4.6-1,5.9-2.5c1.3,1.5,3.4,2.5,5.9,2.5c2.5,0,4.6-1,5.9-2.5c1.3,1.5,3.4,2.5,5.9,2.5c3.7,0,6.7-2.2,7.1-5.1l-2.5-0.3C68.5,73.1,66.5,74.4,64.1,74.4z M33.9,52.5c0-2.2,1.8-3.9,3.9-3.9c2.2,0,3.9,1.8,3.9,3.9s-1.8,3.9-3.9,3.9C35.7,56.5,33.9,54.7,33.9,52.5z M62.7,52.5c0-2.2,1.8-3.9,3.9-3.9c2.2,0,3.9,1.8,3.9,3.9s-1.8,3.9-3.9,3.9C64.5,56.5,62.7,54.7,62.7,52.5z"/></g></g>
</svg>