<svg width="280" height="48" viewBox="0 0 280 48" fill="none" xmlns="http://www.w3.org/2000/svg">
    <path d="M0.425781 12.6316C0.425781 5.65535 6.08113 0 13.0574 0H35.7942C42.7704 0 48.4258 5.65535 48.4258 12.6316V35.3684C48.4258 42.3446 42.7704 48 35.7942 48H13.0574C6.08113 48 0.425781 42.3446 0.425781 35.3684V12.6316Z"
          fill="#465FFF"/>
    <g filter="url(#filter0_d_3903_56743)">
        <path d="M13.0615 12.6323C13.0615 11.237 14.1926 10.106 15.5878 10.106C16.9831 10.106 18.1142 11.237 18.1142 12.6323V35.3691C18.1142 36.7644 16.9831 37.8954 15.5878 37.8954C14.1926 37.8954 13.0615 36.7644 13.0615 35.3691V12.6323Z"
              fill="white"/>
    </g>
    <g filter="url(#filter1_d_3903_56743)">
        <path d="M22.5391 22.7353C22.5391 21.3401 23.6701 20.209 25.0654 20.209C26.4606 20.209 27.5917 21.3401 27.5917 22.7353V35.3669C27.5917 36.7621 26.4606 37.8932 25.0654 37.8932C23.6701 37.8932 22.5391 36.7621 22.5391 35.3669V22.7353Z"
              fill="white" fill-opacity="0.9" shape-rendering="crispEdges"/>
    </g>
    <g filter="url(#filter2_d_3903_56743)">
        <path d="M32.0078 16.4189C32.0078 15.0236 33.1389 13.8926 34.5341 13.8926C35.9294 13.8926 37.0604 15.0236 37.0604 16.4189V35.3663C37.0604 36.7615 35.9294 37.8926 34.5341 37.8926C33.1389 37.8926 32.0078 36.7615 32.0078 35.3663V16.4189Z"
              fill="white" fill-opacity="0.7" shape-rendering="crispEdges"/>
    </g>


    <path d="M60 10.5H63.5V27.5L69.5 10.5H73V37H69.5V20L63.5 37H60V10.5Z" fill="white"/>


    <path d="M78 28.1917C78 22.3833 81.5 18.8833 86.5 18.8833C91.5 18.8833 95 22.3833 95 28.1917C95 34 91.5 37.5 86.5 37.5C81.5 37.5 78 34 78 28.1917ZM82.5 28.1917C82.5 31.5 84 33.5 86.5 33.5C89 33.5 90.5 31.5 90.5 28.1917C90.5 24.8833 89 22.8833 86.5 22.8833C84 22.8833 82.5 24.8833 82.5 28.1917Z"
          fill="white"/>

    <path d="M108.5 10.5V22.8C107.7 22.3 106.7 22 105.5 22C103.3 22 101.5 23.5 101.5 26V34C101.5 36.5 103.3 38 105.5 38C106.7 38 107.7 37.7 108.5 37.2V37.5H112V10.5H108.5ZM108.5 24.5V35.5C107.9 35.7 106.8 35.5 106 35.5C104.9 35.5 104 34.8 104 34V26C104 25.2 104.9 24.5 106 24.5C106.8 24.5 107.9 24.3 108.5 24.5Z"
          fill="white"/>

    <path d="M118 26C118 23.5 119.8 22 122 22C124.2 22 126 23.5 126 26V28H120.5V34C120.5 35.1 121.1 35.5 122 35.5C122.6 35.5 123.1 35.2 123.4 34.8L124.8 36.2C124.2 37.4 123.1 38 122 38C119.8 38 118 36.5 118 34V26ZM120.5 25.5H123.5V26C123.5 24.9 122.9 24.5 122 24.5C121.1 24.5 120.5 24.9 120.5 26V25.5Z"
          fill="white"/>

    <path d="M132 10.5H139C140.7 10.5 142 11.8 142 13.5C142 14.8 141.3 15.9 140.2 16.3L143 37H139.5L137 24H134.5V37H132V10.5ZM134.5 13V19H139C139.8 19 140.5 18.3 140.5 17.5C140.5 16.7 139.8 16 139 16H134.5V13Z"
          fill="white"/>

    <path d="M148 26C148 23.5 149.8 22 152 22C154.2 22 156 23.5 156 26V28H150.5V34C150.5 35.1 151.1 35.5 152 35.5C152.6 35.5 153.1 35.2 153.4 34.8L154.8 36.2C154.2 37.4 153.1 38 152 38C149.8 38 148 36.5 148 34V26ZM150.5 25.5H153.5V26C153.5 24.9 152.9 24.5 152 24.5C151.1 24.5 150.5 24.9 150.5 26V25.5Z"
          fill="white"/>

    <path d="M160 19.4168H163.5L167.5 33.5L171.5 19.4168H175L169 37H166L160 19.4168Z" fill="white"/>

    <path d="M179 26C179 23.5 180.8 22 183 22C185.2 22 187 23.5 187 26V28H181.5V34C181.5 35.1 182.1 35.5 183 35.5C183.6 35.5 184.1 35.2 184.4 34.8L185.8 36.2C185.2 37.4 184.1 38 183 38C180.8 38 179 36.5 179 34V26ZM181.5 25.5H184.5V26C184.5 24.9 183.9 24.5 183 24.5C182.1 24.5 181.5 24.9 181.5 26V25.5Z"
          fill="white"/>

    <path d="M192 19.4168H195.5V23.5C196.2 21.3 197.8 19.5 200 19.5V23C197.8 23 195.5 24.3 195.5 26.8V37H192V19.4168Z"
          fill="white"/>

    <path d="M204 10.5H207.5V19.4168H211V22.2701H207.5V31.8289C207.5 32.6136 207.7 32.8633 208.5 32.8633H211V37H208C206.3 37 204 35.7 204 33.755V22.2701H202V19.4168H204V10.5Z"
          fill="white"/>

    <defs>
        <filter id="filter0_d_3903_56743" x="12.0615" y="9.60596" width="7.05273" height="29.7896"
                filterUnits="userSpaceOnUse" color-interpolation-filters="sRGB">
            <feFlood flood-opacity="0" result="BackgroundImageFix"/>
            <feColorMatrix in="SourceAlpha" type="matrix" values="0 0 0 0 0 0 0 0 0 0 0 0 0 0 0 0 0 0 127 0"
                           result="hardAlpha"/>
            <feOffset dy="0.5"/>
            <feGaussianBlur stdDeviation="0.5"/>
            <feComposite in2="hardAlpha" operator="out"/>
            <feColorMatrix type="matrix" values="0 0 0 0 0 0 0 0 0 0 0 0 0 0 0 0 0 0 0.12 0"/>
            <feBlend mode="normal" in2="BackgroundImageFix" result="effect1_dropShadow_3903_56743"/>
            <feBlend mode="normal" in="SourceGraphic" in2="effect1_dropShadow_3903_56743" result="shape"/>
        </filter>
        <filter id="filter1_d_3903_56743" x="21.5391" y="19.709" width="7.05273" height="19.6843"
                filterUnits="userSpaceOnUse" color-interpolation-filters="sRGB">
            <feFlood flood-opacity="0" result="BackgroundImageFix"/>
            <feColorMatrix in="SourceAlpha" type="matrix" values="0 0 0 0 0 0 0 0 0 0 0 0 0 0 0 0 0 0 127 0"
                           result="hardAlpha"/>
            <feOffset dy="0.5"/>
            <feGaussianBlur stdDeviation="0.5"/>
            <feComposite in2="hardAlpha" operator="out"/>
            <feColorMatrix type="matrix" values="0 0 0 0 0 0 0 0 0 0 0 0 0 0 0 0 0 0 0.12 0"/>
            <feBlend mode="normal" in2="BackgroundImageFix" result="effect1_dropShadow_3903_56743"/>
            <feBlend mode="normal" in="SourceGraphic" in2="effect1_dropShadow_3903_56743" result="shape"/>
        </filter>
        <filter id="filter2_d_3903_56743" x="31.0078" y="13.3926" width="7.05273" height="26"
                filterUnits="userSpaceOnUse" color-interpolation-filters="sRGB">
            <feFlood flood-opacity="0" result="BackgroundImageFix"/>
            <feColorMatrix in="SourceAlpha" type="matrix" values="0 0 0 0 0 0 0 0 0 0 0 0 0 0 0 0 0 0 127 0"
                           result="hardAlpha"/>
            <feColorMatrix type="matrix" values="0 0 0 0 0 0 0 0 0 0 0 0 0 0 0 0 0 0 127 0" result="hardAlpha"/>
            <feOffset dy="0.5"/>
            <feGaussianBlur stdDeviation="0.5"/>
            <feComposite in2="hardAlpha" operator="out"/>
            <feColorMatrix type="matrix" values="0 0 0 0 0 0 0 0 0 0 0 0 0 0 0 0 0 0 0.12 0"/>
            <feBlend mode="normal" in2="BackgroundImageFix" result="effect1_dropShadow_3903_56743"/>
            <feBlend mode="normal" in="SourceGraphic" in2="effect1_dropShadow_3903_56743" result="shape"/>
        </filter>
    </defs>
</svg>