<svg width="154" height="32" viewBox="0 0 154 32" fill="none" xmlns="http://www.w3.org/2000/svg">
    <path d="M0 8.42105C0 3.77023 3.77023 0 8.42105 0H23.5789C28.2298 0 32 3.77023 32 8.42105V23.5789C32 28.2298 28.2298 32 23.5789 32H8.42105C3.77023 32 0 28.2298 0 23.5789V8.42105Z"
          fill="#465FFF"/>
    <g filter="url(#filter0_d_1608_324)">
        <path d="M8.42383 8.42152C8.42383 7.49135 9.17787 6.7373 10.108 6.7373C11.0382 6.7373 11.7922 7.49135 11.7922 8.42152V23.5794C11.7922 24.5096 11.0382 25.2636 10.108 25.2636C9.17787 25.2636 8.42383 24.5096 8.42383 23.5794V8.42152Z"
              fill="white"/>
    </g>
    <g filter="url(#filter1_d_1608_324)">
        <path d="M14.7422 15.1569C14.7422 14.2267 15.4962 13.4727 16.4264 13.4727C17.3566 13.4727 18.1106 14.2267 18.1106 15.1569V23.5779C18.1106 24.5081 17.3566 25.2621 16.4264 25.2621C15.4962 25.2621 14.7422 24.5081 14.7422 23.5779V15.1569Z"
              fill="white" fill-opacity="0.9" shape-rendering="crispEdges"/>
    </g>
    <g filter="url(#filter2_d_1608_324)">
        <path d="M21.0547 10.9459C21.0547 10.0158 21.8087 9.26172 22.7389 9.26172C23.6691 9.26172 24.4231 10.0158 24.4231 10.9459V23.5775C24.4231 24.5077 23.6691 25.2617 22.7389 25.2617C21.8087 25.2617 21.0547 24.5077 21.0547 23.5775V10.9459Z"
              fill="white" fill-opacity="0.7" shape-rendering="crispEdges"/>
    </g>

    <!-- N -->
    <path d="M35 8H38V25L43 12H46V28H43V11L38 24H35V8Z" fill="white"/>

    <!-- o -->
    <path d="M49 16C49 13.5 50.8 12 53 12C55.2 12 57 13.5 57 16V24C57 26.5 55.2 28 53 28C50.8 28 49 26.5 49 24V16ZM51.5 16V24C51.5 25.1 52.1 25.5 53 25.5C53.9 25.5 54.5 25.1 54.5 24V16C54.5 14.9 53.9 14.5 53 14.5C52.1 14.5 51.5 14.9 51.5 16Z"
          fill="white"/>

    <!-- d -->
    <path d="M67 8V12.8C66.2 12.3 65.2 12 64 12C61.8 12 60 13.5 60 16V24C60 26.5 61.8 28 64 28C65.2 28 66.2 27.7 67 27.2V28H69V8H67ZM67 14.5V25.5C66.4 25.7 65.3 25.5 64.5 25.5C63.4 25.5 62.5 24.8 62.5 24V16C62.5 15.2 63.4 14.5 64.5 14.5C65.3 14.5 66.4 14.3 67 14.5Z"
          fill="white"/>

    <!-- e -->
    <path d="M70 16C70 13.5 71.8 12 74 12C76.2 12 78 13.5 78 16V18H72.5V24C72.5 25.1 73.1 25.5 74 25.5C74.6 25.5 75.1 25.2 75.4 24.8L76.8 26.2C76.2 27.4 75.1 28 74 28C71.8 28 70 26.5 70 24V16ZM72.5 15.5H75.5V16C75.5 14.9 74.9 14.5 74 14.5C73.1 14.5 72.5 14.9 72.5 16V15.5Z"
          fill="white"/>

    <!-- R -->
    <path d="M82 8H89C90.7 8 92 9.3 92 11C92 12.3 91.3 13.4 90.2 13.8L93 28H90.5L88 14H84.5V28H82V8ZM84.5 10.5V11.5H89C89.8 11.5 90.5 10.8 90.5 11C90.5 10.2 89.8 10.5 89 10.5H84.5Z"
          fill="white"/>

    <!-- e -->
    <path d="M96 16C96 13.5 97.8 12 100 12C102.2 12 104 13.5 104 16V18H98.5V24C98.5 25.1 99.1 25.5 100 25.5C100.6 25.5 101.1 25.2 101.4 24.8L102.8 26.2C102.2 27.4 101.1 28 100 28C97.8 28 96 26.5 96 24V16ZM98.5 15.5H101.5V16C101.5 14.9 100.9 14.5 100 14.5C99.1 14.5 98.5 14.9 98.5 16V15.5Z"
          fill="white"/>

    <!-- v -->
    <path d="M107 12H109.5L112.5 25L115.5 12H118L114 28H111L107 12Z" fill="white"/>

    <!-- e -->
    <path d="M121 16C121 13.5 122.8 12 125 12C127.2 12 129 13.5 129 16V18H123.5V24C123.5 25.1 124.1 25.5 125 25.5C125.6 25.5 126.1 25.2 126.4 24.8L127.8 26.2C127.2 27.4 126.1 28 125 28C122.8 28 121 26.5 121 24V16ZM123.5 15.5H126.5V16C126.5 14.9 125.9 14.5 125 14.5C124.1 14.5 123.5 14.9 123.5 16V15.5Z"
          fill="white"/>

    <!-- r -->
    <path d="M132 12H134.5V16C135.2 13.8 136.8 12 139 12V14.5C136.8 14.5 134.5 15.8 134.5 18V28H132V12Z" fill="white"/>

    <!-- t -->
    <path d="M142 8H144.5V12H148V14.5H144.5V24C144.5 24.8 144.7 25 145.5 25H148V27.5H145C143.3 27.5 142 26.2 142 24V14.5H140V12H142V8Z"
          fill="white"/>

    <defs>
        <filter id="filter0_d_1608_324" x="7.42383" y="6.2373" width="5.36841" height="20.5264"
                filterUnits="userSpaceOnUse" color-interpolation-filters="sRGB">
            <feFlood flood-opacity="0" result="BackgroundImageFix"/>
            <feColorMatrix in="SourceAlpha" type="matrix" values="0 0 0 0 0 0 0 0 0 0 0 0 0 0 0 0 0 0 127 0"
                           result="hardAlpha"/>
            <feOffset dy="0.5"/>
            <feGaussianBlur stdDeviation="0.5"/>
            <feComposite in2="hardAlpha" operator="out"/>
            <feColorMatrix type="matrix" values="0 0 0 0 0 0 0 0 0 0 0 0 0 0 0 0 0 0 0.12 0"/>
            <feBlend mode="normal" in2="BackgroundImageFix" result="effect1_dropShadow_1608_324"/>
            <feBlend mode="normal" in="SourceGraphic" in2="effect1_dropShadow_1608_324" result="shape"/>
        </filter>
        <filter id="filter1_d_1608_324" x="13.7422" y="12.9727" width="5.36841" height="13.7896"
                filterUnits="userSpaceOnUse" color-interpolation-filters="sRGB">
            <feFlood flood-opacity="0" result="BackgroundImageFix"/>
            <feColorMatrix in="SourceAlpha" type="matrix" values="0 0 0 0 0 0 0 0 0 0 0 0 0 0 0 0 0 0 127 0"
                           result="hardAlpha"/>
            <feOffset dy="0.5"/>
            <feGaussianBlur stdDeviation="0.5"/>
            <feComposite in2="hardAlpha" operator="out"/>
            <feColorMatrix type="matrix" values="0 0 0 0 0 0 0 0 0 0 0 0 0 0 0 0 0 0 0.12 0"/>
            <feBlend mode="normal" in2="BackgroundImageFix" result="effect1_dropShadow_1608_324"/>
            <feBlend mode="normal" in="SourceGraphic" in2="effect1_dropShadow_1608_324" result="shape"/>
        </filter>
        <filter id="filter2_d_1608_324" x="20.0547" y="8.76172" width="5.36841" height="18" filterUnits="userSpaceOnUse"
                color-interpolation-filters="sRGB">
            <feFlood flood-opacity="0" result="BackgroundImageFix"/>
            <feColorMatrix in="SourceAlpha" type="matrix" values="0 0 0 0 0 0 0 0 0 0 0 0 0 0 0 0 0 0 127 0"
                           result="hardAlpha"/>
            <feOffset dy="0.5"/>
            <feGaussianBlur stdDeviation="0.5"/>
            <feComposite in2="hardAlpha" operator="out"/>
            <feColorMatrix type="matrix" values="0 0 0 0 0 0 0 0 0 0 0 0 0 0 0 0 0 0 0.12 0"/>
            <feBlend mode="normal" in2="BackgroundImageFix" result="effect1_dropShadow_1608_324"/>
            <feBlend mode="normal" in="SourceGraphic" in2="effect1_dropShadow_1608_324" result="shape"/>
        </filter>
    </defs>
</svg>