<svg width="154" height="32" viewBox="0 0 154 32" fill="none" xmlns="http://www.w3.org/2000/svg">
    <path d="M0 8.42105C0 3.77023 3.77023 0 8.42105 0H23.5789C28.2298 0 32 3.77023 32 8.42105V23.5789C32 28.2298 28.2298 32 23.5789 32H8.42105C3.77023 32 0 28.2298 0 23.5789V8.42105Z"
          fill="#465FFF"/>
    <g filter="url(#filter0_d_1624_24907)">
        <path d="M8.42383 8.42152C8.42383 7.49135 9.17787 6.7373 10.108 6.7373V6.7373C11.0382 6.7373 11.7922 7.49135 11.7922 8.42152V23.5794C11.7922 24.5096 11.0382 25.2636 10.108 25.2636V25.2636C9.17787 25.2636 8.42383 24.5096 8.42383 23.5794V8.42152Z"
              fill="white"/>
    </g>
    <g filter="url(#filter1_d_1624_24907)">
        <path d="M14.7422 15.1569C14.7422 14.2267 15.4962 13.4727 16.4264 13.4727V13.4727C17.3566 13.4727 18.1106 14.2267 18.1106 15.1569V23.5779C18.1106 24.5081 17.3566 25.2621 16.4264 25.2621V25.2621C15.4962 25.2621 14.7422 24.5081 14.7422 23.5779V15.1569Z"
              fill="white" fill-opacity="0.9" shape-rendering="crispEdges"/>
    </g>
    <g filter="url(#filter2_d_1624_24907)">
        <path d="M21.0547 10.9459C21.0547 10.0158 21.8087 9.26172 22.7389 9.26172V9.26172C23.6691 9.26172 24.4231 10.0158 24.4231 10.9459V23.5775C24.4231 24.5077 23.6691 25.2617 22.7389 25.2617V25.2617C21.8087 25.2617 21.0547 24.5077 21.0547 23.5775V10.9459Z"
              fill="white" fill-opacity="0.7" shape-rendering="crispEdges"/>
    </g>

    <!-- N -->
    <path d="M35 8H37V25L41 12H43V28H41V11L37 24H35V8Z" fill="#101828"/>

    <!-- o -->
    <path d="M45 18C45 14.5 47 12 49.5 12C52 12 54 14.5 54 18V22C54 25.5 52 28 49.5 28C47 28 45 25.5 45 22V18ZM47 18V22C47 23.7 48 25 49.5 25C51 25 52 23.7 52 22V18C52 16.3 51 15 49.5 15C48 15 47 16.3 47 18Z"
          fill="#101828"/>

    <!-- d -->
    <path d="M63 8V12.5C62.2 12.2 61.5 12 60.5 12C58 12 56 14.5 56 18V22C56 25.5 58 28 60.5 28C61.5 28 62.2 27.8 63 27.5V32H65V8H63ZM63 15V25C62.5 25.3 61.7 25.5 60.8 25.5C59.2 25.5 58 24 58 22V18C58 16 59.2 14.5 60.8 14.5C61.7 14.5 62.5 14.7 63 15Z" fill="#101828"/>

    <!-- e -->
    <path d="M65 18C65 14.5 67 12 69.5 12C72 12 74 14.5 74 18V20H67V22C67 23.7 68 25 69.5 25C70.4 25 71.1 24.5 71.5 23.7L72.8 25.3C72.2 27.2 70.9 28 69.5 28C67 28 65 25.5 65 22V18ZM67 17.5H72V18C72 16.3 71 15 69.5 15C68 15 67 16.3 67 18V17.5Z"
          fill="#101828"/>

    <!-- R -->
    <path d="M76 8H83C85.5 8 87 10 87 13C87 15.2 86 16.8 85 17.5L88 32H85.5L83 18H78V32H76V8ZM78 11V15H83C83.8 15 84.5 14.1 84.5 13C84.5 11.9 83.8 11 83 11H78Z"
          fill="#101828"/>

    <!-- e -->
    <path d="M90 18C90 14.5 92 12 94.5 12C97 12 99 14.5 99 18V20H92V22C92 23.7 93 25 94.5 25C95.4 25 96.1 24.5 96.5 23.7L97.8 25.3C97.2 27.2 95.9 28 94.5 28C92 28 90 25.5 90 22V18ZM92 17.5H97V18C97 16.3 96 15 94.5 15C93 15 92 16.3 92 18V17.5Z"
          fill="#101828"/>

    <!-- v -->
    <path d="M101 12H103L106.5 26L110 12H112L107.5 32H105.5L101 12Z" fill="#101828"/>

    <!-- e -->
    <path d="M114 18C114 14.5 116 12 118.5 12C121 12 123 14.5 123 18V20H116V22C116 23.7 117 25 118.5 25C119.4 25 120.1 24.5 120.5 23.7L121.8 25.3C121.2 27.2 119.9 28 118.5 28C116 28 114 25.5 114 22V18ZM116 17.5H121V18C121 16.3 120 15 118.5 15C117 15 116 16.3 116 18V17.5Z"
          fill="#101828"/>

    <!-- r -->
    <path d="M125 12H127V16C127.8 13.5 129.5 12 131.5 12V15C129.3 15 127 16.5 127 20V32H125V12Z" fill="#101828"/>

    <!-- t -->
    <path d="M133 8H135V12H138V15H135V25C135 26.1 135.2 26.5 136 26.5H138V29H135.5C134 29 133 27.5 133 25V15H131V12H133V8Z"
          fill="#101828"/>

    <defs>
        <filter id="filter0_d_1624_24907" x="7.42383" y="6.2373" width="5.36841" height="20.5263"
                filterUnits="userSpaceOnUse" color-interpolation-filters="sRGB">
            <feFlood flood-opacity="0" result="BackgroundImageFix"/>
            <feColorMatrix in="SourceAlpha" type="matrix" values="0 0 0 0 0 0 0 0 0 0 0 0 0 0 0 0 0 0 127 0"
                           result="hardAlpha"/>
            <feOffset dy="0.5"/>
            <feGaussianBlur stdDeviation="0.5"/>
            <feComposite in2="hardAlpha" operator="out"/>
            <feColorMatrix type="matrix" values="0 0 0 0 0 0 0 0 0 0 0 0 0 0 0 0 0 0 0.12 0"/>
            <feBlend mode="normal" in2="BackgroundImageFix" result="effect1_dropShadow_1624_24907"/>
            <feBlend mode="normal" in="SourceGraphic" in2="effect1_dropShadow_1624_24907" result="shape"/>
        </filter>
        <filter id="filter1_d_1624_24907" x="13.7422" y="12.9727" width="5.36841" height="13.7895"
                filterUnits="userSpaceOnUse" color-interpolation-filters="sRGB">
            <feFlood flood-opacity="0" result="BackgroundImageFix"/>
            <feColorMatrix in="SourceAlpha" type="matrix" values="0 0 0 0 0 0 0 0 0 0 0 0 0 0 0 0 0 0 127 0"
                           result="hardAlpha"/>
            <feOffset dy="0.5"/>
            <feGaussianBlur stdDeviation="0.5"/>
            <feComposite in2="hardAlpha" operator="out"/>
            <feColorMatrix type="matrix" values="0 0 0 0 0 0 0 0 0 0 0 0 0 0 0 0 0 0 0.12 0"/>
            <feBlend mode="normal" in2="BackgroundImageFix" result="effect1_dropShadow_1624_24907"/>
            <feBlend mode="normal" in="SourceGraphic" in2="effect1_dropShadow_1624_24907" result="shape"/>
        </filter>
        <filter id="filter2_d_1624_24907" x="20.0547" y="8.76172" width="5.36841" height="18"
                filterUnits="userSpaceOnUse" color-interpolation-filters="sRGB">
            <feFlood flood-opacity="0" result="BackgroundImageFix"/>
            <feColorMatrix in="SourceAlpha" type="matrix" values="0 0 0 0 0 0 0 0 0 0 0 0 0 0 0 0 0 0 127 0"
                           result="hardAlpha"/>
            <feOffset dy="0.5"/>
            <feGaussianBlur stdDeviation="0.5"/>
            <feComposite in2="hardAlpha" operator="out"/>
            <feColorMatrix type="matrix" values="0 0 0 0 0 0 0 0 0 0 0 0 0 0 0 0 0 0 0.12 0"/>
            <feBlend mode="normal" in2="BackgroundImageFix" result="effect1_dropShadow_1624_24907"/>
            <feBlend mode="normal" in="SourceGraphic" in2="effect1_dropShadow_1624_24907" result="shape"/>
        </filter>
    </defs>
</svg>